<svg xmlns="http://www.w3.org/2000/svg" width="1500" height="1500" shape-rendering="geometricPrecision"
    text-rendering="geometricPrecision" image-rendering="optimizeQuality" fill-rule="evenodd" clip-rule="evenodd"
    viewBox="0 0 156872 156900">
    <g fill-rule="nonzero">
        <path fill="#FFF"
            d="M155330 70394c-3271-31836-26483-58838-57452-66782C85931 548 73925 320 61859 2927 38930 7882 19320 23520 9036 44429 1605 59537-707 76931 2604 93474c7382 36901 40576 63548 78312 62252 44899-1541 78998-40733 74414-85332z" />
        <path
            d="M76074 5l4794-5c14644 541 28050 4748 40219 12623 10945 7083 20013 16931 26217 28252 6987 12750 10147 26531 9481 41343-1569 34941-26920 65140-60974 72752C47598 165745 1613 130091 0 80804v-4708C1320 34674 34690 1283 76074 5zm79250 70383c-3271-31836-26483-58839-57452-66782C85925 542 73919 313 61853 2920 38923 7876 19314 23514 9030 44423 1599 59531-713 76925 2598 93468c7382 36900 40576 63547 78312 62252 44899-1541 78998-40733 74414-85332z" />
        <path
            d="M137135 78440c0 32412-26285 58697-58697 58697s-58697-26285-58697-58697 26285-58698 58697-58698 58697 26286 58697 58698zm-19547 42154c13776-12664 20508-31763 17847-50243-3661-25416-23913-45662-49501-48984-18474-2399-37084 4267-49722 18010-11767 12796-17329 30216-14724 47495 3762 24950 23601 45017 48778 48553 17345 2437 34444-2990 47322-14831z" />
        <path
            d="M85904 6484c169-378 357-116 364 129 27 978 45 1954 54 2928v8c-3 96-83 171-178 168h-6l-58-2c-39-1-74-30-82-71-570-2677-3102-3836-5407-2112-291 219-577 700-858 1444-929 2467-826 6228 2518 6770 1683 272 2748-528 3735-1733 26-32 66-51 108-51 21 0 42 5 61 14 127 61 129 189 54 304-982 1500-2295 2233-3939 2198-5889-125-6290-8428-1236-10112 1301-434 2580-308 3838 378 483 263 790 279 1032-260zm-64395 96979c1585 1761 2254 4835-354 6139-1644 822-3301 1617-4973 2386-718 330-890 827-516 1492 78 141 131 349-85 373-7 1-13 1-20 1-67 0-128-39-156-100-547-1185-1101-2364-1664-3540-73-156-71-355 152-322 67 11 122 59 141 124 232 798 738 1016 1517 652 1496-702 2990-1405 4483-2108 1551-731 2528-1899 1630-3648-635-1234-1779-2122-3215-1640-914 306-2693 1128-5337 2463-836 420-644 820-400 1552 6 17 9 35 9 54 0 67-39 128-99 157l-56 28c-12 6-26 9-39 9-35 0-67-21-81-53-168-380-1448-2959-1400-3126 19-72 70-113 151-122 6-1 12-1 18-1 59 0 112 37 130 93 250 722 832 986 1549 663 1556-701 3102-1418 4638-2152 1377-659 2953-509 3977 626zm121251 1620c-1737-825-3482-1636-5236-2434-753-342-1245-136-1477 616-15 49-52 90-100 109-242 98-299-116-210-298 439-892 861-1793 1266-2700 186-424 488-143 291 188-405 683-82 1135 573 1445 2109 998 4222 1982 6338 2954 33 14 67 18 100 14 768-110 1322-513 1661-1210 19-38 58-62 100-62 23 0 46 7 64 20l53 35c47 32 75 86 75 143 0 25-6 50-16 73l-1024 2221c-23 50-66 86-117 98-2643 673-5284 1350-7924 2031-267 69-538 122-811 161-312 44-325 132-38 265 1676 775 3354 1547 5034 2315 730 333 1326 136 1518-661 12-50 57-85 109-85 11 0 23 1 34 5l52 16c3 0 6 2 10 3 91 35 136 136 102 226-2 3-3 7-5 10l-1332 2849c-33 74-119 115-202 94l-56-14c-39-11-66-47-66-87 0-11 1-21 5-30 165-478 497-1193-171-1512-2604-1241-5219-2459-7844-3654-335-152-252-396 47-471 3054-779 6110-1561 9166-2347 310-79 320-188 31-326zm8472-7229c66 42 95 119 74 193l-302 1180c-64 247-168 265-313 54l-1677-2454c-24-34-34-78-28-120 56-390 2018 1001 2246 1147zM12254 99488c1846-496 3700-1006 5562-1529 744-209 1158-645 741-1419-36-68-10-152 58-189l41-22c3-2 9-5 15-8 88-37 190 5 227 93 3 6 5 12 7 18 268 951 525 1902 771 2854 32 118 272 429-122 378-71-11-127-60-145-126-177-606-390-1100-1136-910-2250 574-4492 1169-6727 1788-875 240-1095 1328-907 2102 15 57-8 116-57 149-164 108-281-67-312-217-158-732-367-1469-626-2210-19-52-11-112 21-159l5209-7250c195-268 132-358-188-270-1566 438-3133 867-4702 1287-923 245-1592 348-1282 1478 29 102 22 202-21 298-108 247-196 239-263-22-250-984-517-1962-802-2937-45-149-96-435 152-394 70 11 128 68 142 142 129 822 631 1109 1504 861 1091-308 3742-1026 7952-2155 180-47 452 44 302 256-1859 2619-3726 5233-5602 7843-190 264-127 354 188 270zm128637-8484c2475 1958 4952 3914 7433 5865 317 250 276 402-124 455-2957 400-5959 804-9006 1212-740 99-1252 453-1536 1062-28 63-94 104-166 101-116-6-161-67-135-183 98-457 404-1590 917-3400 60-212 165-287 314-227 66 27 100 99 81 168-208 746 107 1066 944 960 888-112 1478-191 1769-235 69-10 125-59 143-126l916-3391c18-67-5-137-59-180-469-387-941-755-1416-1107-874-645-999-247-1385 524-24 47-72 77-125 77-12 0-23-2-33-4-118-30-155-129-114-295 229-905 470-1806 722-2702 10-35 35-67 68-85 168-90 248 97 243 238-17 545 166 969 549 1273zm2176 2600c-11-9-24-13-37-13-27 0-51 18-57 44l-818 3009c-2 5-2 11-2 16 0 33 26 60 59 60 2 0 5 0 7-1l3920-551c30-4 52-29 52-59 0-18-9-36-24-47l-3100-2458zM7091 86181c113 840 387 1261 1322 1126 2187-311 4376-617 6566-918 851-117 1569-281 1299-1383-3-14-5-28-5-42 0-92 71-168 162-174l57-4c49-2 91 33 95 80 150 1324 336 2644 558 3960 26 156-41 221-201 195-66-10-120-58-139-123-210-719-239-1284-1247-1132-2055 310-4113 602-6174 875-444 60-874 135-1289 225-300 66-452 249-456 548l-14 781c-2 47-22 92-57 124-120 112-196 79-226-101-134-810-723-4244-392-4185 73 13 131 72 141 146v2zm136091 1927c-1250-121-2799-931-2915-2351-241-2941 3009-1891 1698-592-180 177-1866 420-961 1065 206 148 483 242 832 282 2322 270 4643 557 6962 860 847 112 1069-351 1182-1095 65-418 331-134 303 98-153 1254-307 2509-462 3764-21 178-158 396-329 178-24-31-37-69-37-108 0-17 2-34 7-51 277-913-249-1234-1069-1355-2537-374-4274-606-5211-695zM13853 78504c255-74 259-162 12-263-1910-778-3828-1543-5756-2296-716-279-1330-225-1346 702-1 88-67 162-155 171l-50 5c-7 1-13 1-20 1-96 0-174-77-174-173v-2759c0-77 63-139 140-139h45c75 0 142 48 166 118 197 581 603 993 1218 1238 1166 464 3955 1595 8368 3392 204 83 357 336 99 448-4863 2122-7856 3446-8978 3970-376 177-584 504-624 982-16 179-92 371-303 251-55-32-89-90-89-152 2-417-89-3909 145-3930 64-5 123 35 143 96 116 357 141 1063 678 1048 197-6 387-48 570-126 1897-818 3704-1617 5421-2397 175-80 339-143 490-187zm136404 2087c243-296 30-629 133-955 28-92 85-134 171-128 90 8 158 83 160 173l63 3268c1 59-44 108-103 113l-65 5c-4 1-10 1-16 1-97 0-175-77-175-173 0-6 1-12 1-19 93-820-364-1188-1163-1188-1588-1-3176-1-4763 0-1773 2-3189-603-3691-2382-506-1799-174-4299 1780-5047 406-155 1089-233 2049-234 1583-1 3168-36 4754-105 644-28 1041-336 993-997-13-164 15-650 306-303 26 30 40 69 41 110v3997c-1 62-51 112-112 112-6 0-12-1-17-2l-70-10c-85-13-148-86-148-172 0-6 1-12 1-18 87-836-324-1236-1234-1201-649 24-2229 30-4741 17-415-2-1196 75-1604 211-1989 655-1813 3419-650 4619 514 531 1414 655 2238 673 1730 37 3462 25 5196-35 271-9 493-119 666-330zM11436 69269c159-925 271-1667 337-2229 86-751-229-1203-944-1356-153-33-300-74-237-258 27-81 109-130 194-115l3119 521c70 11 125 64 141 132 37 166-40 238-233 218-1334-136-1341 598-1547 1713-91 498-174 993-251 1483v-1c-15 96 49 185 143 200h1l3885 574c94 14 182-50 197-145 147-891 290-1782 431-2673 207-1311-575-1853-1437-2606-103-91-176-279-5-334 36-11 75-7 107 9l2102 1106c68 36 103 110 90 184-356 2396-717 4731-1082 7006-21 129 35 448-225 373-81-23-135-101-125-185 99-861-6-1218-905-1365-2095-339-4191-670-6289-992-984-150-1849-443-1901 863-1 33-11 65-29 91-201 296-370 111-328-147 382-2401 752-4783 1109-7146 13-86 87-150 174-150 6 0 13 1 19 1l1885 230c56 8 103 39 130 84 125 208-125 291-287 286-943-29-1478 437-1606 1397-120 889-251 1775-394 2659-1 9-2 18-2 28 0 86 63 159 149 172l3417 514c9 2 18 3 27 3 84 0 157-62 170-146v1zm129228 2022c-76-10-136-69-148-145l-1215-7251c-14-78 27-157 101-189 146-63 230-1 251 184 82 728 411 1107 1227 972 2258-368 4513-747 6765-1136 829-143 1359-464 1076-1390-5-16-7-33-7-50 0-82 56-153 136-171l66-16c1 0 2 0 3-1 62-12 121 28 133 88v4l686 4170c1 9 2 19 2 28 0 74-47 141-117 166l-46 15c-4 2-8 3-12 4-60 14-120-23-134-82-1-4-1-8-2-12-73-605-342-1465-1137-1344-2433 367-4838 767-7216 1199-368 66-536 285-504 657 153 1791 254 3950 2510 4274 163 24 368 136 278 317-26 53-84 83-144 75l-2552-366zM14834 57266c-1 10 0 21 1 33 10 96 96 165 193 155 11-1 22-4 32-7 1218-385 2436-785 3654-1201 772-264 1335-756 1689-1477 82-166 253-333 349-26 12 35 11 72 0 107l-748 2292c-18 55-60 96-114 112l-5193 1710c-55 18-97 62-113 117l-212 706c-5 16-7 34-7 51 0 76 50 143 122 165l3355 1039c41 13 84 10 123-7 422-190 677-517 763-980 18-87 93-146 179-142l42 1c76 2 136 64 136 140 0 14-3 28-7 42l-1234 3863c-15 46-57 77-105 77-15 0-30-3-43-9l-42-15c-65-27-108-91-108-161 0-20 4-39 10-57 469-1364-452-1421-1395-1732-3182-1050-5195-1694-6036-1930-756-213-1206 62-1351 825-16 82-88 142-172 142-15 0-31-2-46-6l-63-18h-2c-59-18-92-81-73-141v-2c431-1348 866-2694 1304-4039 548-1685 1927-3229 3845-2244 948 487 1371 1359 1267 2617zm-4732 1332l3527 1126c84 28 177-14 213-96 1688-3966-3735-5112-3860-1203-3 78 46 149 120 173zm68784-8150c-1097 290-725-1506 150-877 248 178 387 1036-49 881-33-11-68-13-101-4zm61332 1657l-3294 1348c-335 137-436 376-303 716 753 1916 924 3503 3450 3646 56 3 105 39 124 92l19 58c2 5 4 11 5 17 16 76-32 151-107 167-6 1-12 2-19 2l-2335 142c-77 3-146-41-174-110-898-2221-1798-4453-2700-6694-85-216-66-490 246-279 33 23 58 56 70 94 364 1218 1161 780 2062 422 1793-709 3579-1430 5360-2165 898-370 1705-593 1069-1726-11-21-17-44-17-68 0-61 39-116 97-134l56-18c89-26 182 19 215 104l2714 6736c8 21 13 43 13 65 0 68-40 130-102 158l-1691 785c-7 3-14 6-21 8-93 28-192-23-220-115-2-7-4-15-5-22l-9-49c-11-78 29-154 100-187 1175-561 981-1417 535-2481-282-673-551-1357-807-2052-1-3-2-4-2-4-36-90-138-134-228-98h-1l-3211 1284c-66 27-110 91-110 162 0 21 4 41 11 60 458 1273 889 3388 2453 2728 74-29 157-7 204 53 284 347-2656 1299-2961 1414-253 96-346 34-279-188 15-52 53-93 102-112 1316-532 798-1390 378-2483-151-394-304-787-459-1179-26-66-90-110-162-110-23 0-45 4-66 13zm-121468 33c1695 563 3083-96 3723-1698 432-1088-251-2420-1531-2267-926 112-2383 1289-3185 1841-3960 2739-6391-2155-3017-4716 623-473-317-858 35-1099 29-19 63-30 98-30 26 0 53 6 76 18l2830 1388c60 30 98 91 98 158 0 7-1 14-2 22-17 133-98 178-241 132-1568-497-2721-157-3459 1020-727 1160-113 2973 1536 2356 1864-698 3937-3486 6127-2426 987 480 1512 1423 1512 2520 0 1388-834 2375-1761 3313-290 291-420 615-47 898 54 39 81 108 67 175-30 126-123 151-280 74-924-452-1850-900-2777-1343-71-34-109-110-96-186 24-157 122-207 294-150zm6507-8503c668 404 1259 188 1561-499 1-3 2-4 3-6 35-70 119-97 188-62 2 0 3 1 5 2 48 27 79 66 92 118 40 150-1936 3168-2173 3548-20 33-56 53-95 53-26 0-51-8-71-25l-48-40c-69-55-85-155-36-230 309-465 571-1046-5-1433-1691-1137-3914-2544-6670-4220-33-19-73-28-112-24-475 64-804 317-985 760-22 52-73 87-129 87-29 0-57-9-80-26l-44-29c-77-55-97-159-46-237 686-1092 1375-2182 2067-3271 80-128 185-234 314-100 26 26 40 61 40 98 0 27-8 54-23 76-438 659-533 1169 190 1641 1998 1307 4017 2579 6057 3819zm114023 3722c-2579 2005-5609 1442-7417-1247-397-589-1241-1976-2532-4161-16-27-24-58-24-89 0-26 6-52 17-75 96-201 251-103 330 47 625 1180 1391 542 2285 7 1559-930 3114-1869 4664-2818 886-542 1716-910 909-2007-18-24-27-52-27-82 0-32 11-62 30-87 122-152 272-45 356 91 839 1396 1673 2796 2500 4200 1303 2213 923 4655-1091 6221zm-7820-3369c1810 6077 10113 2110 8299-2547-254-652-641-1235-1161-1750-56-56-144-66-212-25l-6849 4124c-69 40-101 123-77 198zM20253 36200c-71 102-154 123-251 63-50-32-81-88-81-148 0-40 14-79 39-110 899-1096 1806-2182 2720-3256 680-796 1522-1637 2452-2038 2003-863 4266 30 5591 1685 1883 2350 1237 4630-554 6796-876 1058-1750 2117-2621 3178-26 33-66 51-107 51-40 0-77-16-104-45l-33-35c-28-32-44-74-44-117 0-46 18-89 50-122 563-578 514-1144-149-1698-1686-1410-3379-2813-5077-4208-331-272-652-466-962-582-20-7-41-11-61-11-24 0-48 5-70 15-318 137-544 300-738 582zm8540 3478c5855-4540-3490-11729-6425-5316-32 72-12 157 48 207l6159 5106c32 26 71 40 112 40 38 0 76-13 106-37zm98946-13943c63-160 155-178 277-54 979 1000 1946 2011 2902 3034 64 69 63 176-4 242l-33 35c-13 13-32 21-51 21-18 0-35-7-48-19-529-492-1172-1072-1821-464-1836 1724-3602 3421-5297 5091-229 227-241 465-36 713 560 678 1168 1307 1824 1887 880 779 1869 676 2876 223 83-38 184-3 226 80l22 44c8 15 12 32 12 50 0 42-24 81-63 100l-2362 1158c-70 33-152 17-203-38l-5105-5350c-24-26-38-60-38-96 0-53 30-101 77-124l50-28c25-12 52-18 79-18 57 0 110 27 143 74 446 629 956 686 1529 171 940-843 2656-2480 5147-4912 537-524 628-1170-37-1612-69-47-95-134-65-210l-1 2zm-90542 1765c-880 782-1801 1537-2702 2296-54 45-75 118-54 185l680 2181c14 47 47 85 90 106 426 200 800 132 1123-204 33-34 79-54 126-54 41 0 80 15 111 40l42 37c5 4 8 6 11 9 54 54 53 142-1 197-3 2-6 5-9 8l-2152 1840c-39 31-86 45-133 40-352-35 201-861 202-1160 3-238-29-464-96-678l-2798-9073c-81-264 1-333 246-206 2837 1462 5683 2908 8538 4338 572 287 1105 246 1599-124 19-14 42-22 66-22 45 0 86 28 103 69l32 72c29 67 10 149-47 198-1449 1222-2339 1980-2670 2274-173 154-288 147-345-21-19-56-7-118 30-165l387-487c204-258 97-499-321-723l-1859-996c-65-35-144-26-199 23zm-3016 1666c8 24 30 41 55 41 14 0 27-5 37-14l2363-2018c12-11 19-26 19-43 0-21-12-41-31-51l-3515-1801c-9-4-18-7-27-7-32 0-58 26-58 58 0 6 1 11 3 17l1154 3818zm77967-3679l37-40c21-21 50-34 81-34 18 0 37 5 53 13 481 262 947 270 1397 23 1497-820 4254-2393 8271-4716 178-103 483-87 412 190-777 3006-1547 6013-2311 9023-175 694-29 1256 438 1686 39 36 54 91 40 142-49 170-197 159-322 65-905-680-1816-1438-2759-2057-196-129-215-248-57-358 60-43 144-41 204 6 1199 941 1452-1338 1687-2277 4-14 5-28 5-42 0-55-25-107-69-140l-2826-2141c-31-23-68-35-106-35-31 0-63 8-90 25l-1881 1121c-274 163-326 403-155 722 71 132 743 692 373 816-14 4-29 7-44 7-31 0-61-10-85-28l-2272-1711c-44-33-69-84-69-139 0-45 17-88 48-121zm4842-1089c-17 9-28 27-28 47 0 17 8 33 21 43l2476 1885c9 7 21 11 33 11 25 0 46-16 52-40l984-3857c1-5 2-10 2-15 0-30-24-54-54-54-10 0-20 3-29 8l-3457 1972zm-78105-5845c-345 34-653 149-924 346-19 14-42 21-66 21-47 0-88-28-105-72l-23-61c-7-20-11-40-11-61 0-63 34-121 88-152 1208-689 2414-1383 3618-2082 895-517 1965-1018 2950-1115 3186-316 5742 3272 4996 6221-389 1536-1622 2672-2966 3447-1184 681-2363 1367-3540 2057-136 80-324 82-321-117 2-48 27-92 69-117 733-448 976-800 514-1616-1166-2064-2394-4168-3683-6310-168-281-367-411-596-389zm6017 6478c6802-1875 1261-12186-4200-7208-62 57-74 148-32 218l4037 6909c38 67 117 101 194 81h1zm63116-10080h-53c-13 0-26 8-33 21-944 1852-1887 3706-2830 5562-425 837-29 1128 668 1479 38 19 62 58 62 101 0 26-10 52-27 73l-44 51c-54 61-142 77-212 39l-2787-1420c-32-17-60-45-76-79-141-298 160-284 312-186 626 402 1117 261 1473-422 1095-2110 2179-4226 3252-6349 12-24 18-51 18-78 0-11 0-21-2-32-121-682-460-1209-1017-1581-120-80-349-303-45-352 33-6 71 0 104 16l2197 1124c48 24 82 68 93 119l1850 8683c67 322 176 336 326 43 817-1605 1633-3210 2448-4814 483-950 50-1109-642-1604-36-26-57-69-57-114 0-12 1-25 5-38 31-110 114-132 249-66 940 471 1880 945 2818 1423 58 30 95 90 95 156 0 37-12 74-34 104l-33 43c-21 29-55 46-90 46-24 0-48-8-67-23-822-617-1306-162-1700 603-1241 2399-2474 4799-3700 7198-148 289-366 331-445-30-643-2940-1278-5881-1906-8824-67-315-100-582-99-800 0-40-33-71-72-72h1zm-11193 4194c-2506-863-3810-3769-2878-6477s3749-4195 6290-3321c2540 875 3845 3781 2912 6489-932 2708-3749 4195-6289 3321l-35-12zm2881-9306c-3069-736-4519 3579-4526 5813-11 3077 3652 4308 5349 1752 1290-1947 2647-6735-823-7565zm-36969 5405l51 23c119 57 161 22 123-105-540-1838-1090-3670-1651-5497-212-692-644-919-1293-682-147 52-428 77-365-162 15-59 60-105 117-122l3015-911c69-22 146 4 190 63 107 143 41 242-197 297-874 200-940 746-707 1534 782 2637 1564 5273 2347 7907 53 173-49 403-242 274-2670-1799-5337-3606-7999-5419-270-183-359-118-266 195 481 1618 966 3237 1458 4858 300 985 422 1885 1663 1402 90-34 187 7 224 92 72 158 14 247-175 267-870 90-1987 566-2856 819-164 47-443 9-308-230 26-46 72-78 125-87 1315-192 926-1097 647-2037-602-2031-1208-4061-1817-6088-10-34-30-64-57-85-549-445-1170-599-1862-463-145 28-363 18-323-183 10-50 47-91 96-106l2415-725c53-15 107-6 150 23l7450 5068c16 10 29 28 35 49l5 15c4 10 6 15 7 16zm25843 966c141-317 251-697 330-1139 382-2134 761-4266 1135-6397 132-751-147-1192-839-1323-641-122-331-413 94-326 1179 242 2363 449 3552 622 178 26 469 227 140 363-40 16-83 17-122 5-749-242-1200 17-1352 776-269 1344-680 3661-1233 6952-134 800 84 1191 891 1309 361 54 419 171 177 352-30 23-67 35-104 35-11 0-22-1-32-3l-3911-712c-5-1-10-2-14-3-59-19-91-83-71-143 1-4 3-8 5-13l31-66c40-82 133-119 215-89 372 126 719 84 1044-125 27-17 50-43 64-74v-1zm-21317-671c905-2997 1756-6024 2706-9006 83-256 189-266 320-31 1550 2792 3115 5575 4693 8350 298 523 770 782 1418 777h2c46 0 85 36 88 82l4 49v14c0 88-66 162-153 173-367 43-3819 596-3772 233 9-65 60-116 123-122 372-40 638-220 801-538 24-47 26-100 7-147-299-759-673-1481-1123-2165-33-50-88-80-148-80-6 0-11 1-17 1l-3482 384c-68 7-125 53-147 118-226 699-409 1353-549 1963-200 886 392 836 1004 843 64 1 122 36 152 92 76 142 8 227-204 255-909 122-1820 233-2734 334-158 18-234-33-228-153 3-74 54-138 125-159 640-190 914-607 1114-1267zm1545-2696c-1 5-2 10-2 14 0 30 25 54 54 54h6l3110-349c28-2 49-26 49-53 0-10-2-19-7-27l-1965-3475c-9-17-27-28-47-28-24 0-45 16-52 39l-1146 3825z" />
        <path
            d="M69150 122179c-42 35-80 74-113 118-795 1095-2579 1108-3552 585-410-223-922-692-1534-1408-2851-3335-5332-6463-8971-9024-284-201-1240-1212-1107-1552 1-4 3-7 5-10 17-27 52-35 78-18 4 2 7 4 9 7 869 858 1870 1210 3004 1057 1826-248 3146-1180 3960-2795 13-25 19-52 19-80 0-70-42-134-108-161-6414-2619-11377-6903-14890-12852-110-187-213-183-307 12l-1088 2251c-20 42-23 91-7 135 410 1112 916 2176 1515 3190 464 785 511 1622-327 2117-1627 957-3861 800-4837-1016-2729-5085-5176-9816-7340-14195-548-1109-803-2259-766-3450 89-2816 2270-6316 4052-8485 51-62 53-150 5-214-6552-8880-425-19953 6540-26140 39-33 60-81 60-131 0-15-2-30-5-45-1378-5030 15-8953 4079-12095 3984-3078 7630-5710 10938-7896 561-372 1344-316 1932 10 752 264 1566 1754 820 2460l-2124 2007c-63 59-73 155-25 225 1531 2265 6003 3062 8498 2361 1815-513 4567-2990 2091-4753-426-302-886-530-1383-682-233-71-249-175-45-312 1976-1316 4168-1812 6575-1487 1369 185 2547 685 3532 1501 31 26 70 40 111 40 43 0 84-16 116-45 586-525 1166-881 1740-1071 2732-904 5345-659 7839 736 170 95 329 204 478 328 12 10 23 21 31 34 55 78 35 186-43 241-13 9-27 16-41 21-447 168-867 382-1260 643-1271 846-1285 2189-352 3311 2397 2886 8650 1945 10883-843 59-75 47-182-25-244-807-688-2328-1835-2282-2968 44-1107 1183-1960 2276-1709 324 75 790 318 1396 729 3635 2463 7177 5049 10627 7757 3669 2882 5001 7185 3582 11651-20 65 0 137 51 183 6972 6240 13142 17308 6569 26181-47 64-45 152 5 215 1387 1690 2495 3533 3325 5529 839 2013 987 3706 276 5685-92 254-500 1102-1224 2544-2019 4021-4092 8015-6220 11982-709 1322-1304 1859-2775 1962-1503 106-3763-728-2595-2675 607-1013 1109-2076 1505-3189 16-45 13-94-8-136l-1091-2284c-95-202-198-207-308-12-1468 2593-3300 4903-5494 6929-2781 2568-5911 4558-9391 5970-95 39-135 151-89 242 1255 2450 4669 3935 6912 1757 53-47 172 13 134 109-214 590-487 1000-818 1229-3745 2585-6413 5835-9295 9291-512 615-967 1037-1365 1266-1290 743-2544 559-3763-553-32-29-74-45-117-45-79 0-148 53-169 129-424 1605-808 2967-1933 4260-59 66-158 79-231 29-850-580-1519-1320-2006-2219-120-222-206-210-258 36-39 179-95 358-169 537-928 2230-2232 4954-4021 6617-224 208-460 222-708 40-585-429-1114-1014-1587-1756-1095-1716-1997-3502-2706-5356-88-230-193-238-315-24-483 850-1127 1556-1932 2120-69 50-165 41-226-22-553-585-967-1272-1242-2060-348-997-581-1751-701-2261-19-79-89-135-170-135-39 0-78 14-109 39zm45873-50892c1211-4953-1805-11969-5300-15462-99-77-174-67-235-7-337 291-715 522-1132 696-102 42-138 165-78 256 1276 1933 2025 4045 2249 6335 200 2177-146 4191-1141 6145-47 95-2 211 98 245 1549 530 3749 1731 4981 2688 87 68 215 37 263-63 127-266 226-544 295-833zm-72647 912c1518-1182 3186-2084 5004-2704 100-35 146-150 99-243-1131-2263-1467-4662-1007-7197 344-1911 1041-3667 2092-5268-1 1 92-153-54-244l-1196-725c-74-38-157-48-220 31-2957 3188-4831 7360-5449 11478-248 1651-96 3249 459 4793 40 113 178 152 272 79zm20910 29052c65-921 0-1801-294-2694-1521-4603-6075-7424-10917-6514-532 100-1060 222-1583 366-6 2-10 3-15 5-89 32-135 132-102 223 1 3 3 7 5 11 904 2078 2276 3785 4114 5121 2512 1825 5598 2934 8578 3639 13 3 27 4 40 4 92 0 168-70 174-161zm43094-8859c-5447-1214-10418 293-12447 5992-314 883-423 1835-328 2858 9 90 84 158 174 158 13 0 26-2 39-4 2048-474 4021-1158 5919-2053 2999-1412 5421-3633 6765-6712 10-22 15-46 15-69 0-82-57-152-137-170z" />
        <path fill="#F8E111"
            d="M112249 43894c658 2514 627 3885-43 6408-801 2435-2304 4286-4507 5553-27 15-57 24-87 24-47 0-92-20-124-53-2065-2098-4466-3815-5104-6919-174-784-294-1047-200-1956 22-213 112-441 272-685 849-1295 947-2669 293-4120-1052-2337-3692-2103-4977-138-32 51-88 81-148 80-12780-234-25628 153-38426-51-62-1-119-34-150-87-243-427-554-758-931-992-1817-1123-3435-263-4138 1575-545 1425-301 2823 732 4195l44 523c-32 862-8 456-218 1525-612 3130-3011 4924-5149 7050-57 56-143 66-210 27-5449-3138-6544-10487-2708-15407 681-874 1560-1606 2650-1425 1353 225 2089 1472 1907 2800-3 25-6 49-7 73-18 246 61 282 237 110l6870-6746c72-72 189-66 255 11 1029 1244 2331 2072 3907 2486 282 49 522 116 741 161 3053 765 7231 134 8341-3301 441-1370-92-2322-1295-2969-214-114-209-219 14-314 2871-1224 5846-1175 8252 795 64 53 158 53 223-1 556-470 989-772 1301-906 2344-1004 4645-957 6901 140 223 109 221 214-5 315-824 369-1296 1027-1414 1974-56 447 79 983 406 1609 2021 3880 7698 3360 10871 1648 714-385 1333-927 1859-1627 63-84 186-94 261-21l6819 6678c179 176 258 139 237-111-53-622 48-1163 304-1624 776-1403 2493-1586 3672-427 1180 1160 2004 2534 2472 4120zM60216 32627c-2765 2706-5574 5332-8425 7876-32 29-73 45-116 45-76 0-143-49-166-122-403-1265-1252-1976-2550-2130-226-27-249-110-68-250 3256-2505 6534-4987 9832-7448 769-572 2670 876 1493 2029zm44865 7874c-3035-2718-5935-5307-8724-8156-618-631 92-2299 1867-1719l9708 7356c221 167 194 271-80 310-1251 183-2080 894-2488 2133-4 11-9 22-15 32-46 81-124 169-268 44zm-34953 82072c64-184 25-344-117-480l-242-1285c-48-256-151-281-310-73-491 646-1082 1066-1774 1257-1490 414-2908-734-3808-1792-1183-1393-2334-2813-3454-4261-603-780-1734-2054-2781-2689-114-69-224-142-331-220-186-137-168-239 52-307 904-276 1661-564 2274-864 1073-527 1891-1350 2455-2469 30-59 90-96 156-96 14 0 27 2 41 5 1280 316 2619 717 3820 959 9211 1855 19382 1773 28460-982 79-25 166 11 206 86 563 1092 1389 1914 2478 2467 739 377 1500 672 2284 886 263 71 278 176 45 317-797 479-1503 1072-2118 1780-1213 1395-2387 2822-3524 4281-1430 1830-3269 4013-5839 2352-184-119-426-380-727-785-140-188-223-165-250 68-130 1148-416 2259-859 3334-215 523-497 1000-846 1431-33 41-83 65-136 65-46 0-91-18-124-51-895-895-1561-1932-1999-3110-99-265-188-262-265 10-429 1499-980 2942-1653 4330-675 1392-1563 2699-2666 3921-2 2-4 4-6 5-68 69-179 70-247 2l-6-6c-611-660-1125-1322-1542-1987-1231-1962-2160-4055-2787-6279-78-275-166-278-265-8-437 1190-1110 2238-2021 3145l-10 10c-74 62-184 53-245-20-3-4-6-8-9-13-642-914-1079-1893-1310-2934zm44803-19676c-1038 1091-4213 418-3214-1338 2526-4436 4252-9158 5179-14164 45-246 131-261 258-46 124 213 270 410 436 591 168 185 378 353 627 504 1035 624 2167 855 3397 692 202-26 263 54 183 241-1798 4220-3829 8316-6094 12290-393 692-650 1102-772 1230zm-69635-1160l-43 872c-975 1208-2832 1191-3651-216-2414-4150-4592-8498-6535-13046-83-191-21-272 186-240 1904 288 3426-312 4567-1801 124-164 191-143 200 63 2 52-3 105-16 158-7 25-7 50-1 75 959 4765 2695 9935 5293 14135zm67774-4585c-100 202-203 203-310 3l-1315-2472c-33-53 13-185 63-269 580-1488 1250-6871 1268-7814 1-41-12-80-37-111l-2012-2578c-54-72-47-170 16-232 2439-2460 5625-4045 8247-6326 68-58 169-56 234 4 1824 1699 3032 3769 3621 6209 617 2559-727 6045-4064 4402-1058-520-1699-1339-1922-2456-65-322-154-329-268-21-150 407-265 824-344 1252-561 3030-1550 7144-3177 10409zm-70447-2781c-89-228-113-398-160-523-557-1451-879-3634-1351-4708-221-1089-429-2148-698-3226-23-175-64-344-122-505-158-440-248-426-270 40-2 40-5 81-9 122-82 903-950 1838-1665 2267-1478 889-3281 744-4073-982-1304-2853 851-6791 2790-8910 196-216 408-418 636-605 69-56 170-52 234 9 2481 2415 5942 3821 8193 6359 29 32 45 73 45 116 0 39-13 76-36 107l-2025 2601c-26 35-39 78-36 120 172 2480 486 4576 941 6290 200 754 336 1314 408 1681 8 40 2 81-17 116l-1297 2401c-107 199-211 197-311-5-437-894-829-1816-1177-2765zm25082-644c3035 2527 6833 4535 10747 5608 30 7 64 7 96-2 2753-860 5263-1981 7529-3362 6522-3977 9791-9928 11115-17348 547-3062 814-6608 852-9939 45-3991 50-7983 16-11974 0-1200 285-340 460 165 89 257 443 799 1064 1627 2131 2845 4964 4978 4158 8763l-211 952-442 1402-299 734-406 868c-135 290-57 367 232 232 1262-589 2450-1299 3564-2130 30-23 67-35 104-35 84 0 156 59 171 141l518 2763c61 249 165 269 312 60l1214-1716c40-56 110-83 178-70 2009 428 3943 1515 5469 2870 65 59 77 156 28 229-2251 3330-6296 4277-8346 7729-1204 2144 627 4529 1663 5450 28 27 46 63 51 101 181 1362-56 3127-466 4534-27 91-122 144-213 118l-1639-446-610-161-654-43c-6571-926-11458 4605-11322 10922 4 81-58 156-136 174-10820 2433-17393 2484-28109-16-79-18-135-89-135-171 7-584-29-1171-107-1761-709-5391-5028-9668-10594-9220-1203 97-2378 335-3525 715-18 6-36 9-55 9-77 0-144-50-167-124-234-762-378-1536-430-2322 64-730 49-1457-44-2180 373-459 731-927 1074-1405 3205-4455-2267-7136-5178-9304-1096-816-1935-1692-2515-2627-17-28-26-60-26-93 0-52 23-101 63-134 1283-1065 3789-2793 5498-2824 56-2 110 25 144 72l1250 1753c129 180 213 161 251-58l497-2843c15-84 87-145 172-145 38 0 75 12 106 35 1110 833 2292 1546 3546 2138 294 139 371 62 232-232-432-914-786-1852-1060-2815 92-175 53-306-117-392-751-2687-5-4575 1731-6631 984-1163 1917-2365 2801-3605 294-412 535-850 723-1315 176-434 265-417 269 51 92 12427-1685 28409 8908 37228z" />
        <path fill="#E2001A"
            d="M46457 54954c76 95 103 298-34 411-1342 1618-2598 2954-3481 4919-1564 3147-2688 5938-2484 9546-549 3586 5383 7661 7900 9483 1766 1278 3342 3580 1675 5691-527 667-1106 1267-1736 1800-215 180-311 130-288-149 101-1184-229-2231-990-3142-1352-2589-9603-6691-10777-10227-1851-5574-947-9309 1039-13515 1868-3736 3579-5589 6374-8561 77-81 211-69 273 25 903 1375 1521 2369 2529 3719zm11886-12955c267 133 436 307 447 630 64 1900 65 3806 3 5718-4 135-153 212-265 143-539-326-1046-698-1520-1116-1545-1358-3336-2915-1937-5126 884-1270 2165-1289 3272-249zM47674 61273c506-2093 1772-4094 3223-5671 2605-2831 4099-4265 4592-8203 26-207 120-245 283-115 918 739 1898 1385 2939 1939 53 27 88 80 93 138 170 2181-95 3792-609 5842-558 2212-3200 4734-4655 6614-1750 2254-1996 4576-806 7207 37 83 324 803 60 618-886-628-1781-1324-2684-2087-161-136-257-100-286 109l-322 2354c-41 297-146 322-316 77-1704-2470-2207-5941-1512-8822zm54089-19204c1699 2963-1126 4999-3408 6433-186 118-290-54-279-402-1-1747-1-3494 2-5241 2-1331 2573-2731 3685-790zm2389 11567c3632 3730 6008 6898 5163 12314-274 763-1224 3735-1681 4258-143 164-224 137-244-80-63-721-222-1509-298-2260 76-525-83-628-478-308-801 648-1569 1309-2354 1972-262 223-336 172-221-154 1845-5199 139-8001-4038-11668-1797-2004-1980-5725-1915-8283 2-57 31-110 79-142 412-267 2305-1490 2924-1952 255-190 314-68 324 52 186 2251 920 4780 2739 6251zm9114-2476c337 364 678 718 1023 1063 6191 6191 10842 17903 3503 24939-2124 1573-6784 4581-8113 6568-602 864-887 1817-854 2857 8 254-86 301-283 142-700-565-1303-1213-1808-1944-805-1567-503-2894 583-4182 1651-1745 3893-2988 5659-4454 6965-5788 2099-15601-2512-20989-27-32-42-72-42-114 0-41 15-82 42-113 852-996 1561-2058 2127-3186 107-541 332-737 675-587zm-2314 34158c274 307 540 629 797 968 51 67 48 159-7 221-453 523-1423 799-2000 949-89 22-179-26-209-110-370-1058-201-2008 505-2849 34-39 82-62 133-62 47 0 93 19 125 53 250 255 433 579 656 830zm-14358 16499c3264-894 7157-3707 9253-6264 1547-1612 2519-5570 2334-7872-20-267 74-317 283-150l924 730c47 36 105 47 159 31 735-213 1417-536 2045-967 182-126 273-77 272 145-4 1857-301 3934-895 5705-2028 6075-6370 9815-11715 12829-10364 5673-25302 5982-36496 2239-5876-1964-12601-6251-15561-11988-1453-2819-2193-5755-2220-8806-1-220 90-269 272-147 658 440 1364 778 2117 1015 55 18 118 6 164-34l913-785c203-175 298-128 288 139-420 10770 10937 14818 19657 16301 9451 1611 19131 1138 28206-2121zM46989 84701c229 783 509 1147 487 2129-67 731-420 862-1060 392-339-274-712-493-1122-657-116-47-146-199-57-286 463-461 855-974 1179-1542 179-390 370-402 573-36z" />
        <path fill="#65AF26"
            d="M88453 92986c-2777 2564-6105 4487-9984 5766-35 11-74 11-110-1-10170-3285-16180-10310-17761-21122-1920-10820-879-23612-879-34692-2-98 75-178 171-179 12363 0 24725 3 37087 5 97 0 175 78 175 174-40 9713 912 23617-994 34842-1079 6355-3802 11785-7705 15207z" />
        <path
            d="M66679 73831c-52 41-101 86-148 135-603 648-1865 1177-2610 1358-13 3-27 5-41 5-84 0-156-60-172-143-201-1117-26-2154 523-3112 16-27 24-57 24-87 0-88-66-162-153-173-1097-148-2086-228-3196-424-82-15-143-87-143-171 0-28 7-55 20-80 526-1031 1344-1728 2454-2090 127-42 161-203 65-293-1711-1597-2783-3516-3217-5756-73-387-72-464-155-953-18-30-3-167 124-53l559 527c349 328 424 274 224-160-627-1357-858-2797-693-4319 32-308 146-75 211 50 182 335 251 313 210-66-294-1478-415-2300-217-3953 27-387 156-424 388-111 96 130 255 314 475 552 68 72 127 2 110-48-528-1543-905-3519-573-5132 76-378 29-749 104-1102 142-660 329-1307 560-1942 127-350 237-345 331 16 32 117 63 237 94 361 65 252 175 120 199-11 250-1371 885-2508 1906-3410 198-175 274-132 228 129-66 387-101 777-106 1171-21 1472 959 3237 1886 4276 1494 1670 3048 3283 4663 4838 2169 2091 4001 4893 2805 8033-284 748-1972 3347-1841 4549 83 756 503 1235 1262 1436 15 4 30 6 45 6 74 0 140-47 165-117 1748-5152 2977-9714 2477-15279-29-321-189-548-481-682-695-318-1359-867-1993-1646-322-396-554-836-697-1318-92-310-4-375 265-193 330 222 704 399 1123 531 1677 532 2425-547 3855-939 1717-691 3795-215 4364 1593 115 340 340 447 676 321 1258-230 3784-150 3568 1703-10 89-85 155-174 155-37 0-74-12-104-34-813-598-1668-590-2563 22-38 26-64 66-73 112-204 1062-891 1425-1923 1754-73 22-122 89-122 165v2c18 1966 120 3549 305 4748 213 1376 401 2807 741 4111 429 1651 944 3276 1547 4874 26 68 91 113 164 113 14 0 28-2 41-5 2645-647 194-4336-413-5588-987-2033-626-4221 722-6171 1841-2664 4572-4812 6608-7147 922-1058 1953-2897 1897-4359-14-362-76-716-185-1061-100-317-25-366 225-149 1021 892 1664 2015 1930 3369 10 43 22 81 39 115 98 198 168 188 209-30l92-484c72-378 162-383 270-14l605 2047c88 296 117 688 89 1177-9 161 18 425 82 791 98 560-12 1179-54 1833-33 548-194 1245-483 2090-150 437-71 483 236 136l251-282c146-164 246-140 300 73 62 250 104 564 123 943 61 1130-70 2279-394 3446-18 70 3 99 63 85 24-6 44-20 56-41l87-133c209-328 316-298 321 90 5 355 6 709 5 1062-1 560-64 1064-190 1512-133 479-297 948-490 1409-175 422-100 473 227 153l338-329c171-168 250-132 237 108-30 516-72 881-125 1096-520 2091-1558 3869-3114 5332-36 33-56 79-56 128 0 75 48 141 118 165 1079 364 1888 1051 2428 2061 13 25 20 53 20 82 0 77-52 146-127 167-531 154-926 242-1185 264-663 55-1324 120-1985 195-88 10-154 84-154 173 0 25 5 49 15 71 153 344 295 734 424 1170 198 674 205 1328 19 1963-25 89-119 143-212 119-1030-285-1942-777-2735-1477-138-123-216-92-232 92-53 645-185 1270-396 1873-167 480-430 893-789 1238-33 31-76 49-122 49-58 0-113-30-145-79l-785-1178c-150-226-255-207-315 57-142 621-394 1196-755 1726-33 48-87 77-145 77-46 0-91-19-124-52-515-528-956-1110-1325-1747-136-235-223-218-260 50l-214 1557c-11 78 33 154 105 185 2127 879 2829 3090 2622 5224-175 1804 354 3499-141 5377-63 236-127 471-191 706-95 358-1 418 281 180 351-296 649-637 893-1024 162-257 248-233 258 70 20 601-34 1161-160 1681-550 2249-1978 3605-4284 4067-38 8-72 28-97 57-821 940-1774 1553-2859 1840-2626 696-6012 457-7872-1771-22-27-54-48-91-57-3061-740-4569-2669-4522-5787 3-297 88-322 254-77 327 486 724 909 1191 1271 87 67 103 30 49-112-312-812-328-1382-452-2043-235-1259 162-2476 87-3752-150-2520 18-4704 2551-5852 63-29 103-91 103-160 0-8-1-15-2-23l-197-1444c-44-322-151-344-321-66-362 592-782 1143-1258 1653-33 36-79 56-128 56-56 0-108-27-141-73-390-552-649-1158-776-1817-47-247-133-261-258-42-228 398-475 783-743 1156-90 127-199 165-327 115-110-42-228-154-327-313-527-850-814-1771-859-2763-10-223-104-266-281-129zm28724-20788c203-687 304-1449 303-2286l-303 2286z" />
        <path fill="#FFF"
            d="M83953 90150c-193 67-378 126-560 167-781 189-1501 518-2160 985-336 237-616 519-841 846-146 212-250 193-312-58-268-1090-773-2060-1515-2908-2-3-5-6-8-9-68-68-179-68-248 1-3 3-6 6-8 9-734 865-1238 1848-1513 2947-45 184-126 201-244 52-297-376-624-685-979-927-811-552-1724-924-2741-1116h-2c-95-17-185 45-202 139v3c-168 965-89 1911 237 2836 7 19 10 39 10 59 0 96-78 174-174 174-7 0-13 0-19-1-498-52-937-235-1318-549-892-737-1553-1640-1985-2710-114-282-44-338 208-167 396 267 824 469 1283 607 252 74 321-7 206-245-380-788-675-1605-884-2453-149-606-209-1217-180-1830 19-396 108-413 267-51 185 418 417 811 698 1177 483 633 1179 1261 2088 1881 206 140 297 86 272-160-143-1502 160-2914 909-4237 0-1 2-4 4-7 51-82 159-106 242-55 2 2 4 3 7 5 718 512 1237 1155 1557 1929 130 313 263 625 399 937 138 319 226 306 265-40 153-1361 679-2563 1578-3606 65-76 183-81 254-11 373 370 674 786 902 1247 361 732 604 1498 727 2296 56 363 145 372 268 27 271-758 559-1342 865-1753 340-459 712-793 1118-1002 81-43 184-13 231 68 739 1300 1046 2695 921 4188-22 261 72 312 281 152 495-379 950-748 1365-1106 643-553 1163-1316 1559-2287 7-18 24-30 44-30 33 2 62 42 62 70 28 1651-333 3204-1084 4657-126 242-58 324 204 247 469-139 905-348 1306-626 257-179 326-123 207 168-433 1061-1097 1954-1989 2680-391 317-834 526-1331 627-198 40-265-36-198-228 326-946 416-1913 270-2900-12-88-93-154-185-148-44 2-89 15-134 39zm-4162 3218c-83-1218-485-2317-1208-3295-67-93-209-94-279-3-1326 1727-1152 3444-1234 3535-19 20-85 106-130 32-500-826-1165-1530-1996-2112-487-340-1003-560-1547-659-68-12-163 11-200 131-63 273-75 565-35 877 256 1995 1338 3249 3248 3762 1655 445 3996 311 5438-594 1339-843 1961-2184 1864-4024-7-108-105-184-210-162-714 143-1353 453-1915 931-580 493-1095 1044-1545 1654-151 204-235 179-251-73zm-6329-43706c-29-95-1-117 83-64 2094 1265 3277-1062 5102-1326 1301-188 2598 398 2983 1721 18 59 2 123-40 168-1006 1081-1422 1335-2491 1761-81 32-125 118-105 202 205 873 775 1368 1712 1484 88 10 154 85 154 173v1c-40 3056 261 6128 901 9215 541 2600 1976 6273 2330 9490 184 1682 119 3352-197 5009-12 58-52 106-106 128-189 80-431 75-606 134-3086 1046-3154 4525-3055 7199 5 116-20 115-75-5-377-827-877-1568-1499-2225-70-74-191-72-258 5-604 694-1103 1450-1494 2267-80 167-141 70-126-42 387-2722-115-6779-3544-7304-72-10-130-64-145-137-764-3801 106-7517 1229-11215 1306-4301 1958-8277 1841-12686-15-646-135-1738-240-2370-14-82-84-144-168-146-524 0-2028-922-2186-1437zm5525 790c436 155 297-703 49-881-875-629-1247 1167-150 877 33-9 68-7 101 4zm-7631 8388c-761-4226-5039-6081-7290-9391-1020-1499-1230-3114-631-4843 13-40 99-114 146-86 19 11 30 32 28 54-260 2663 1960 5095 3714 6798 2394 2323 6188 5543 5771 9297-126 1139-905 2417-1437 3493-103 209-267 727-492 1555-227 836 13 1455 722 1857 217 124 558 192 825 326 46 24 150 77 144 129-39 379-87 521-405 455-2314-483-2379-2615-1706-4469 668-1846 933-3381 611-5175zm-6256-5607c-1875-1799-3400-4014-2645-6767 9-35 27-48 54-40 16 4 28 18 28 35 8 1523 538 2829 1590 3919 1546 1604 3323 2954 4727 4696 1005 1248 1686 2650 2043 4205 50 215-28 282-234 201l-422-168c-52-20-91-65-104-120-247-979-872-1541-1876-1686-78-11-140-74-148-153-166-1608-1929-3081-3013-4122zm-729 4533c-3001-2765-3683-6313-2921-10242 8-37 30-70 62-91 58-37 83-10 76 81-261 3245 3213 5911 5187 8019 549 587 844 1226 886 1918 4 61-25 119-76 154-564 387-878 924-942 1608-9 90-84 158-174 158-33 0-65-9-93-27-622-393-1290-919-2005-1578zm-1463 3470c-1597-1734-2358-3777-2282-6127 10-323 114-357 312-101 1463 1888 3224 3449 5283 4685 196 118 183 204-40 256-641 150-1088 552-1343 1205-159 404-227 825-202 1261 14 251-80 300-281 148-507-387-989-830-1447-1327zm722 4463c-1465-1337-2389-2997-2966-4882-113-369-189-746-228-1131-50-487 37-513 263-79 428 828 1021 1535 1780 2122 167 130 534 390 1099 778 319 220 646 431 979 633 8 4 16 10 24 17 73 64 81 174 18 247-6 8-14 15-21 21-113 89-179 164-200 224-306 887-222 1690 253 2410 179 269 121 337-173 204-282-128-558-316-828-564zm-12 2717c-1474-1313-2403-3151-2999-5002-93-286 17-311 144-121 529 785 1096 1481 1702 2087 700 701 1541 1169 2525 1404 78 19 134 89 134 170 0 23-5 46-14 67-345 821 54 1658 643 2293 261 264 214 341-141 232-745-232-1410-608-1994-1130zm4634 446c-1158 1529-2748 101-2580-1358 87-748 1142-734 1649-511 61 27 102 87 105 154 18 622 281 1111 788 1468 0 0 1 0 2 1 77 57 95 165 39 242-1 1-1 2-2 3l-1 1zm-2748-2552c-345-264-547-647-607-1148-172-1471 452-1965 1871-1480 8 3 14 5 20 8 86 42 122 148 79 235-2 6-6 11-9 16-447 725-468 1464-64 2219 14 25 21 53 21 82 0 63-35 122-90 153-429 238-836 210-1221-85zm-143-3536c-22-20-40-47-48-76-468-1537 1284-3277 2402-1572 46 69 36 161-23 219-466 453-698 1010-695 1673 0 83-59 154-140 171-567 117-1066-21-1496-415zm2684-2066c-630-426-888-923-773-1491 194-950 1025-1348 1909-821 317 188 519 431 607 730 5 16 8 34 8 51 0 77-52 146-126 167-669 190-1123 616-1364 1280-25 68-90 114-163 114-35 0-70-11-98-30zm310 5602c-897-164-1214-776-949-1836 72-291 267-491 583-600 179-63 189-146 29-249-479-310-573-768-284-1376 247-520 628-727 1144-623 12 3 24 4 36 4 96 0 174-78 174-174 0-13-1-26-4-39-67-287-67-507-2-661 394-934 1004-1093 1831-476 40 32 63 76 68 123 225 1923-794 3776-1099 5460-312 1725 1139 2677 2607 2923 5 0 8 1 11 2 93 21 150 115 128 210 0 3-1 6-2 9l-273 976c-18 66-74 115-141 124-712 109-1085-111-1120-661-5-92-82-163-174-163-26 0-51 6-75 17-217 102-364 152-439 148-863-36-1161-379-895-1029 64-157 13-220-153-190-791 142-1242-232-1355-1121-4-39 4-77 24-110 98-172 228-318 389-439 170-128 150-211-59-249zm87 4386c-292-251-374-514-246-791 119-256 283-470 492-643 0-1 2-2 4-4 76-59 186-45 246 32 1 2 2 3 4 5 308 444 738 645 1289 603h2c96-7 178 64 185 158v2c58 730-311 1070-1106 1019-308-19-598-146-870-381zm2125 820c-78-36-119-124-96-207l288-994c2-7 5-15 9-23 38-87 141-126 229-87 8 3 16 8 24 12 292 194 618 269 980 225 7-1 14-1 21-1 96 0 174 78 174 174v5c-28 1080-571 1378-1629 896zm-7057-2085c206-89 410-83 610 43 804 418 1660 658 2568 722 269 19 304 119 106 302-241 224-548 400-920 528-1359 464-2719 492-4080 84-74-22-125-90-125-167 0-37 12-74 34-104 474-641 1077-1111 1807-1408zm1628 2292c30-41 66-86 106-134 27-33 68-55 113-61 681-79 1309-296 1882-650 249-156 316-98 201 172-250 589-425 1201-525 1836-5 32-19 64-42 89-675 749-1483 1294-2424 1636-19 7-39 10-59 10-96 0-174-78-174-174v-5c32-1003 340-1910 922-2719zm4341-54c85 3 156 65 170 149 105 670 33 1346-218 2027-267 722-623 1425-1069 2108-32 50-87 79-146 79-65 0-124-35-154-93-568-1088-788-2237-657-3448 46-435 206-874 479-1317 4-6 8-11 11-16 60-76 169-90 244-31 5 4 9 8 13 12 368 344 810 521 1327 530zm1713 635c169 19 357 9 563-30 7-1 12-1 16-2 96-8 181 62 189 157 0 5 1 9 1 14 10 413 12 822 5 1228-8 507-88 945-239 1315-255 619-608 1181-1060 1684-33 37-80 58-130 58-65 0-124-36-154-93-289-545-428-1157-419-1834 14-957 130-1836 347-2636 21-76 90-129 168-129 36 0 70 11 99 31 198 135 402 214 614 237zm8480-20325c-107-9-105-25 4-49 1110-238 1656-1297 2671-1642 776-263 1693-115 2476 9 338 52 585 197 741 436 188 284 121 371-202 259-392-134-800-127-1223 23-1569 558-2725 1119-4467 964zm180 937c-160-97-437-365-437-566 0-109 97-189 203-172 1014 167 2011 108 2992-178 126-34 247 73 220 201-76 400-342 694-799 882-757 310-1484 255-2179-167zm4273 15406l14-347c4-83 65-153 147-166 3477-544-255-5204-508-7073-540-3997 4093-7693 6574-10181 1588-1596 3051-3627 2934-5996v-3c0-25 17-48 42-55 43-11 73 3 89 44 1836 4765-3573 7701-6001 10491-2333 2678-2494 5874-1252 9140 87 229 175 604 263 1126 300 1755-396 2821-2089 3198-12 2-25 4-38 4-97 0-175-78-175-174v-8zm4452-10807c-974 155-1585 707-1831 1658-15 53-52 95-101 116l-438 195c-216 96-296 30-240-199 454-1880 1354-3522 2699-4927 2152-2251 5775-4560 5635-7876-7-176 29-186 108-30 8 15 15 32 19 51 651 2512-521 4685-2289 6360-1418 1345-3234 2861-3376 4635-6 81-129 7-186 17zm702 70c-48-33-77-88-77-147 0-4 0-8 1-12 38-466 155-844 350-1135 1829-2739 6026-5006 5773-8751-1-21 9-41 26-52 267-166 354 2945 354 3269 1 837-100 1599-303 2286-799 2695-2431 4787-4896 6275-108 65-251-4-263-133-68-674-389-1207-965-1600zm1489 2375c-219-86-229-190-27-312 1756-1069 3318-2407 4686-4014 198-233 383-476 555-729 162-238 248-213 256 75 81 3201-1147 5712-3686 7534-192 138-284 89-275-148 11-325-36-659-143-1003-207-662-662-1130-1366-1403zm4202 1272c561-505 1008-1150 1341-1933 89-206 146-198 171 24 5 37 3 83-5 136-324 2256-1503 4854-3405 6413-206 169-427 307-663 417-306 140-364 72-174-206 436-638 562-1350 380-2136-47-200-155-375-324-526-6-5-12-12-18-18-62-75-54-185 19-246 8-6 15-11 23-16 1029-604 1914-1240 2655-1909zm1177 2049c65-117 121-135 166-52 19 35 22 76 9 114-759 2112-1906 4506-3904 5685-359 213-739 385-1139 516-381 127-428 49-141-232 337-329 585-767 743-1315 99-341 71-655-84-941-14-26-21-54-21-83 0-78 52-147 127-168 1130-320 2086-921 2869-1805 751-847 1209-1420 1375-1719zm-6078 7222c-265-193-234-298 93-316 1018-53 1967-333 2847-840 44-26 97-31 145-14 831 295 1507 796 2027 1501 23 30 35 67 35 105 0 77-51 146-125 167-1161 343-2328 383-3500 121-506-114-1014-356-1522-724zm-66 2460c-23-27-37-58-42-92-100-629-271-1235-514-1817-108-259-42-317 199-174 575 340 1200 559 1876 655 44 7 85 30 113 66 637 844 986 1792 1048 2844 1 11 0 23-1 34-14 96-103 162-199 149-11-2-22-5-33-8-951-335-1767-887-2447-1657zm-2472 1163c-337-809-278-1433-309-2272v-7c0-94 75-171 169-174 523-14 975-195 1355-544 32-30 74-46 118-46 64 0 124 36 154 93 547 1036 669 2132 366 3290-134 512-318 1005-553 1480-29 60-90 97-156 97-57 0-111-28-144-76-396-576-730-1190-1000-1841zm-694-678c58 284 84 560 87 828 95 838-47 1626-427 2363-30 58-90 95-156 95-49 0-95-21-128-57-1086-1200-1526-2622-1319-4267 11-87 85-153 173-153 15 0 30 2 44 5 429 111 821 47 1178-192 29-19 62-29 97-29 82 0 153 57 170 138l281 1269zm-2040-2174c-99-197-130-421-93-673 13-86 86-150 173-150 6 0 13 1 19 1 351 41 663-38 936-237 30-22 66-34 104-34 76 0 143 50 165 123l296 954c23 67 0 144-57 188-487 377-1233 448-1543-172zm1803-584c-116-179-171-386-166-621v-5c3-95 85-170 182-166h5c566 45 1008-156 1328-605 33-45 85-72 141-72 40 0 79 14 110 39 283 228 459 525 528 892 2 11 3 21 3 32 0 27-6 54-18 78-380 764-1557 1292-2113 428zm2863-3561c1-71 47-136 116-160 499-170 987-134 1465 108 46 23 80 66 91 117 373 1572-1244 3342-2504 1672-23-31-36-68-36-105 0-57 28-110 74-143 513-364 777-860 794-1489zm711-715c-66-26-110-90-110-162 0-28 7-57 21-82 402-754 382-1492-59-2212-17-28-26-59-26-92 0-65 37-126 95-156 427-218 841-278 1242-180 936 232 741 1685 406 2326-339 654-862 840-1569 558zm-136-3217c-90-8-158-84-157-173 2-676-232-1238-703-1685-65-62-73-164-16-234 277-348 560-565 848-652 1465-439 2873 3022 28 2744zm-2844-3856c-104-29-157-144-113-241 971-2129 3593-185 2183 1271-127 131-262 253-405 365-30 23-68 36-107 36-74 0-141-48-165-118-235-686-699-1124-1393-1313zm-1419 10105c-47 608-423 826-1130 652-62-16-110-64-127-125l-250-954v-3c-23-92 34-186 127-209 1 0 1-1 1-1 1482-360 2863-1108 2601-2897-246-1693-1229-3449-1107-5475 2-41 19-80 48-109 520-540 1301-568 1704 114 173 295 229 625 166 989-22 120 83 224 204 202 514-97 891 110 1133 619 294 621 202 1077-277 1370-160 99-152 182 24 250 307 116 504 329 590 638 288 1038-35 1643-968 1815-227 42-244 126-52 253l369 246c57 37 86 101 78 166-103 974-558 1391-1364 1251-169-29-220 35-152 192 229 533-4 881-698 1042-159 37-381-19-666-167-24-13-52-20-80-20-91 0-167 71-174 161zm-3245 14132c-662 350-1225 817-1688 1400-151 190-234 163-249-78-50-816-45-1631 14-2443 157-2164 1960-4560 4416-3280 2044 1066 1697 3946 1151 5829-346 1194-979 2175-1897 2945-203 170-299 123-286-141 71-1543-342-2937-1239-4181-48-69-143-92-220-52l-2 1zm-8382 39c-923 1241-1333 2632-1239 4182 16 258-77 308-281 148-569-447-1024-991-1365-1632-1135-2130-1979-7206 1751-7460 1665-114 2723 1259 3072 2718 263 1090 324 2200 183 3328-31 251-117 271-256 58-133-204-294-390-485-560-117-103-496-379-1137-826-81-58-184-34-243 44z" />
    </g>
</svg>